<?xml version="1.0" encoding="UTF-8"?>
<!DOCTYPE svg PUBLIC "-//W3C//DTD SVG 1.1//EN" "http://www.w3.org/Graphics/SVG/1.1/DTD/svg11.dtd">
<!-- Creator: CorelDRAW -->
<svg xmlns="http://www.w3.org/2000/svg" xml:space="preserve" width="8.66666in" height="8.66666in" style="shape-rendering:geometricPrecision; text-rendering:geometricPrecision; image-rendering:optimizeQuality; fill-rule:evenodd; clip-rule:evenodd"
viewBox="0 0 8.66666 8.66666"
 xmlns:xlink="http://www.w3.org/1999/xlink">
 <defs>
  <style type="text/css">
   <![CDATA[
    .fil0 {fill:#FFFFFF}
    .fil2 {fill:black}
    .fil1 {fill:black;fill-rule:nonzero}
   ]]>
  </style>
 </defs>
 <g id="Layer_x0020_1">
  <metadata id="CorelCorpID_0Corel-Layer"/>
  <circle class="fil0" cx="4.33333" cy="4.33333" r="4.33333"/>
  <g id="_325657608">
   <path id="_325658376" class="fil1" d="M4.33333 5.15756c0.111744,0 0.212929,0.0453071 0.286169,0.118543 0.0732362,0.0732402 0.118543,0.174425 0.118543,0.286169 0,0.111744 -0.0453071,0.212929 -0.118543,0.286169 -0.0732402,0.0732362 -0.174425,0.118543 -0.286169,0.118543 -0.111744,0 -0.212929,-0.0453071 -0.286169,-0.118543 -0.0732362,-0.0732402 -0.118543,-0.174425 -0.118543,-0.286169 0,-0.111744 0.0453071,-0.212929 0.118543,-0.286169 0.0732402,-0.0732362 0.174425,-0.118543 0.286169,-0.118543z"/>
   <path id="_325658496" class="fil2" d="M4.6195 5.84844c0.0732362,-0.0732402 0.118543,-0.174425 0.118543,-0.286169 0,-0.111744 -0.0453071,-0.212929 -0.118543,-0.286169 -0.0732402,-0.0732362 -0.174425,-0.118543 -0.286169,-0.118543 -0.111744,0 -0.212929,0.0453071 -0.286169,0.118543 -0.0732362,0.0732402 -0.118543,0.174425 -0.118543,0.286169 0,0.111744 0.0453071,0.212929 0.118543,0.286169 0.0732402,0.0732362 0.174425,0.118543 0.286169,0.118543 0.111744,0 0.212929,-0.0453071 0.286169,-0.118543z"/>
   <path id="_325657824" class="fil2" d="M6.3127 6.81333l0 -4.96c0,-0.0441811 -0.0358189,-0.08 -0.08,-0.08l-3.79873 0c-0.0441811,0 -0.08,0.0358189 -0.08,0.08l0 4.96c0,0.0441811 0.0358189,0.08 0.08,0.08l3.79873 0c0.0441811,0 0.08,-0.0358189 0.08,-0.08zm-0.610091 -2.63402l-2.73854 0c-0.0441811,0 -0.08,-0.0358189 -0.08,-0.08 0,-0.0441811 0.0358189,-0.08 0.08,-0.08l2.73854 0c0.0441811,0 0.08,0.0358189 0.08,0.08 0,0.0441811 -0.0358189,0.08 -0.08,0.08zm0 -0.577783l-2.73854 0c-0.0441811,0 -0.08,-0.0358189 -0.08,-0.08 0,-0.0441811 0.0358189,-0.08 0.08,-0.08l2.73854 0c0.0441811,0 0.08,0.0358189 0.08,0.08 0,0.0441811 -0.0358189,0.08 -0.08,0.08zm0 -0.577783l-2.73854 0c-0.0441811,0 -0.08,-0.0358189 -0.08,-0.08 0,-0.0441811 0.0358189,-0.08 0.08,-0.08l2.73854 0c0.0441811,0 0.08,0.0358189 0.08,0.08 0,0.0441811 -0.0358189,0.08 -0.08,0.08zm0 -0.577783l-2.73854 0c-0.0441811,0 -0.08,-0.0358189 -0.08,-0.08 0,-0.0441811 0.0358189,-0.08 0.08,-0.08l2.73854 0c0.0441811,0 0.08,0.0358189 0.08,0.08 0,0.0441811 -0.0358189,0.08 -0.08,0.08zm-0.332161 3.28039c0,0.0441811 -0.0358189,0.08 -0.08,0.08l-0.176063 0c-0.00734252,0.0236102 -0.015685,0.0466457 -0.0249724,0.0690472 -0.00938189,0.022626 -0.019811,0.0448307 -0.0312402,0.0665512l0.124528 0.12452c0.0312402,0.0312402 0.0312402,0.0818937 0,0.113134l-0.000295276 0.000287402 -0.231744 0.231752c-0.0312402,0.0312402 -0.0818937,0.0312402 -0.113134,0l-0.000287402 -0.000295276 -0.124228 -0.124228c-0.0217205,0.0114291 -0.0439252,0.0218622 -0.0665551,0.0312441 -0.0224055,0.0092874 -0.045437,0.0176299 -0.0690472,0.0249724l0 0.176055c0,0.0441811 -0.0358189,0.08 -0.08,0.08l-0.328154 0c-0.0441811,0 -0.08,-0.0358189 -0.08,-0.08l0 -0.176055c-0.0236102,-0.00734252 -0.0466457,-0.015685 -0.0690472,-0.0249724 -0.0226299,-0.00938189 -0.0448346,-0.019815 -0.0665551,-0.0312441l-0.124516 0.124524c-0.0312402,0.0312402 -0.0818937,0.0312402 -0.113134,0l-0.000287402 -0.000295276 -0.231752 -0.231744c-0.0312402,-0.0312402 -0.0312402,-0.0818937 0,-0.113134l0.000295276 -0.000287402 0.124232 -0.124232c-0.0114291,-0.0217205 -0.0218583,-0.0439252 -0.0312402,-0.0665512 -0.0092874,-0.0224016 -0.0176299,-0.045437 -0.0249724,-0.0690472l-0.176063 0c-0.0441811,0 -0.08,-0.0358189 -0.08,-0.08l0 -0.328154c0,-0.0441811 0.0358189,-0.08 0.08,-0.08l0.176063 0c0.00734252,-0.0236102 0.0156811,-0.0466417 0.0249685,-0.0690394 0.00938189,-0.0226299 0.019815,-0.0448386 0.0312441,-0.0665591l-0.124531 -0.12452c-0.0312402,-0.0312402 -0.0312362,-0.0818976 3.93701e-006,-0.113138l0.000444882 -0.000433071 0.231594 -0.231602c0.0312402,-0.0312402 0.0818937,-0.0312402 0.113134,0l0.000287402 0.000295276 0.124224 0.124224c0.0217205,-0.0114252 0.0439252,-0.0218583 0.0665512,-0.0312402 0.0224055,-0.0092874 0.0454409,-0.0176299 0.0690551,-0.0249724l0 -0.176051c0,-0.0441811 0.0358189,-0.08 0.08,-0.08l0.328154 0c0.0441811,0 0.08,0.0358189 0.08,0.08l0 0.176051c0.0236142,0.00734252 0.0466496,0.015685 0.0690551,0.0249724 0.022626,0.00938189 0.0448307,0.019815 0.0665512,0.0312402l0.124512 -0.12452c0.0312402,-0.0312402 0.0818937,-0.0312402 0.113134,0l0.000287402 0.000295276 0.231752 0.231744c0.0312402,0.0312402 0.0312402,0.0818937 0,0.113134l-0.000295276 0.000287402 -0.124232 0.124236c0.0114252,0.0217165 0.0218583,0.0439213 0.0312402,0.0665472 0.0092874,0.0224016 0.0176299,0.045437 0.0249724,0.0690472l0.176063 0c0.0441811,0 0.08,0.0358189 0.08,0.08l0 0.328154z"/>
  </g>
 </g>
</svg>
