<?xml version="1.0" standalone="no"?>
<!DOCTYPE svg PUBLIC "-//W3C//DTD SVG 1.0//EN" "http://www.w3.org/TR/2001/REC-SVG-20010904/DTD/svg10.dtd">
<svg xmlns="http://www.w3.org/2000/svg" xmlns:xlink="http://www.w3.org/1999/xlink" id="body_1" width="32" height="32">

<g>
	<g>
        <path d="M22.285 15.349L16 21.544L9.715 15.348001C 9.321 14.957001 8.681 14.957001 8.287001 15.348001C 7.8930006 15.739 7.8930006 16.372 8.287001 16.762001L8.287001 16.762001L15.286001 23.661001C 15.665001 24.036001 16.334002 24.038002 16.715002 23.661001L16.715002 23.661001L23.714003 16.761002C 24.108002 16.371002 24.108002 15.737001 23.714003 15.347002C 23.319 14.958 22.679 14.958 22.285 15.349z" stroke="none" fill="#ffffff" />
        <path d="M15.286 16.662C 15.665 17.037 16.334 17.039001 16.715 16.662L16.715 16.662L23.714 9.7630005C 24.108 9.372001 24.108 8.739 23.714 8.349001C 23.320002 7.958001 22.68 7.958001 22.286001 8.349001L22.286001 8.349001L16 14.544L9.715 8.349C 9.321 7.958 8.681 7.958 8.287001 8.349C 7.8930006 8.74 7.8930006 9.373 8.287001 9.7630005L8.287001 9.7630005L15.286 16.662z" stroke="none" fill="#ffffff" />
	</g>
</g>
</svg>
